<svg width="192" height="67" viewBox="0 0 192 67" fill="none" xmlns="http://www.w3.org/2000/svg">
<rect width="52" height="43" transform="translate(12 12)" fill="#121212"/>
<path d="M14.3379 20.6348H23.8477C26.3086 20.6348 28.3125 21.4082 29.8594 22.9551C31.418 24.502 32.1973 26.5059 32.1973 28.9668C32.1973 31.4395 31.4062 33.4551 29.8242 35.0137C28.2539 36.5605 26.2207 37.334 23.7246 37.334H18.2754V46H14.3379V20.6348ZM18.2754 23.957V34.0293H22.793C24.5039 34.0293 25.8281 33.5898 26.7656 32.7109C27.7031 31.832 28.1719 30.5898 28.1719 28.9844C28.1719 27.3906 27.7031 26.1543 26.7656 25.2754C25.8398 24.3965 24.5215 23.957 22.8105 23.957H18.2754ZM35.1855 46V27.5078H38.8066V30.6543H38.8945C39.1992 29.5762 39.7441 28.7324 40.5293 28.123C41.3145 27.5137 42.252 27.209 43.3418 27.209C43.7051 27.209 44.1387 27.2559 44.6426 27.3496V30.8828C44.3027 30.7422 43.7344 30.6719 42.9375 30.6719C41.7188 30.6719 40.752 31.0527 40.0371 31.8145C39.334 32.5762 38.9824 33.6133 38.9824 34.9258V46H35.1855ZM57.1406 31.5684C56.3086 30.6777 55.2363 30.2324 53.9238 30.2324C52.6113 30.2324 51.5215 30.6836 50.6543 31.5859C49.7871 32.4766 49.3066 33.6309 49.2129 35.0488H58.459C58.4121 33.6191 57.9727 32.459 57.1406 31.5684ZM58.4414 40.5684H62.0449C61.7754 42.2676 60.9082 43.6562 59.4434 44.7344C57.9785 45.8125 56.1914 46.3516 54.082 46.3516C51.375 46.3516 49.2422 45.502 47.6836 43.8027C46.1367 42.0918 45.3633 39.7715 45.3633 36.8418C45.3633 33.9355 46.1367 31.5977 47.6836 29.8281C49.2422 28.0586 51.3223 27.1738 53.9238 27.1738C56.4785 27.1738 58.5059 28.0117 60.0059 29.6875C61.5059 31.3516 62.2559 33.5898 62.2559 36.4023V37.7031H49.1953V37.9316C49.1953 39.5488 49.6465 40.8438 50.5488 41.8164C51.4512 42.7891 52.6582 43.2754 54.1699 43.2754C55.2363 43.2754 56.1504 43.0293 56.9121 42.5371C57.6738 42.0449 58.1836 41.3887 58.4414 40.5684Z" fill="white"/>
<path d="M73.3379 20.6348H82.2852C86.0586 20.6348 89 21.7422 91.1094 23.957C93.2305 26.1719 94.291 29.2773 94.291 33.2734C94.291 37.2812 93.2363 40.4043 91.127 42.6426C89.0176 44.8809 86.0703 46 82.2852 46H73.3379V20.6348ZM77.2754 24.0273V42.5898H81.916C84.6113 42.5898 86.6738 41.793 88.1035 40.1992C89.5449 38.6055 90.2656 36.3086 90.2656 33.3086C90.2656 30.3203 89.5449 28.0293 88.1035 26.4355C86.6621 24.8301 84.5996 24.0273 81.916 24.0273H77.2754Z" fill="#112211"/>
<path d="M108.547 31.5684C107.715 30.6777 106.643 30.2324 105.33 30.2324C104.018 30.2324 102.928 30.6836 102.061 31.5859C101.193 32.4766 100.713 33.6309 100.619 35.0488H109.865C109.818 33.6191 109.379 32.459 108.547 31.5684ZM109.848 40.5684H113.451C113.182 42.2676 112.314 43.6562 110.85 44.7344C109.385 45.8125 107.598 46.3516 105.488 46.3516C102.781 46.3516 100.648 45.502 99.0898 43.8027C97.543 42.0918 96.7695 39.7715 96.7695 36.8418C96.7695 33.9355 97.543 31.5977 99.0898 29.8281C100.648 28.0586 102.729 27.1738 105.33 27.1738C107.885 27.1738 109.912 28.0117 111.412 29.6875C112.912 31.3516 113.662 33.5898 113.662 36.4023V37.7031H100.602V37.9316C100.602 39.5488 101.053 40.8438 101.955 41.8164C102.857 42.7891 104.064 43.2754 105.576 43.2754C106.643 43.2754 107.557 43.0293 108.318 42.5371C109.08 42.0449 109.59 41.3887 109.848 40.5684ZM116.281 32.7461C116.281 31.0938 116.949 29.752 118.285 28.7207C119.621 27.6895 121.367 27.1738 123.523 27.1738C125.574 27.1738 127.256 27.6953 128.568 28.7383C129.893 29.7695 130.584 31.1113 130.643 32.7637H127.074C126.98 31.9199 126.611 31.2578 125.967 30.7773C125.322 30.2969 124.473 30.0566 123.418 30.0566C122.387 30.0566 121.555 30.2852 120.922 30.7422C120.301 31.1992 119.99 31.791 119.99 32.5176C119.99 33.6426 120.934 34.4395 122.82 34.9082L125.932 35.6289C127.795 36.0742 129.113 36.6836 129.887 37.457C130.672 38.2188 131.064 39.2852 131.064 40.6562C131.064 42.3438 130.35 43.7148 128.92 44.7695C127.502 45.8242 125.656 46.3516 123.383 46.3516C121.215 46.3516 119.445 45.8359 118.074 44.8047C116.715 43.7734 115.959 42.4023 115.807 40.6914H119.568C119.721 41.582 120.137 42.2676 120.816 42.748C121.496 43.2168 122.41 43.4512 123.559 43.4512C124.695 43.4512 125.592 43.2344 126.248 42.8008C126.916 42.3555 127.25 41.7578 127.25 41.0078C127.25 40.4102 127.051 39.9355 126.652 39.584C126.254 39.2324 125.574 38.9336 124.613 38.6875L121.309 37.8789C117.957 37.0703 116.281 35.3594 116.281 32.7461ZM134.141 46V27.5078H137.938V46H134.141ZM137.604 24.168C137.17 24.5898 136.648 24.8008 136.039 24.8008C135.43 24.8008 134.908 24.5898 134.475 24.168C134.053 23.7461 133.842 23.2363 133.842 22.6387C133.842 22.0293 134.053 21.5137 134.475 21.0918C134.908 20.6699 135.43 20.459 136.039 20.459C136.66 20.459 137.182 20.6699 137.604 21.0918C138.037 21.5137 138.254 22.0293 138.254 22.6387C138.254 23.2363 138.037 23.7461 137.604 24.168ZM149.697 42.9238C151.186 42.9238 152.375 42.3613 153.266 41.2363C154.168 40.1113 154.619 38.5996 154.619 36.7012C154.619 34.8027 154.168 33.2793 153.266 32.1309C152.375 30.9824 151.186 30.4082 149.697 30.4082C148.232 30.4082 147.061 30.9766 146.182 32.1133C145.314 33.25 144.881 34.7793 144.881 36.7012C144.881 38.623 145.314 40.1406 146.182 41.2539C147.061 42.3672 148.232 42.9238 149.697 42.9238ZM149.732 52.9609C147.576 52.9609 145.748 52.4453 144.248 51.4141C142.76 50.3828 141.898 49.0586 141.664 47.4414H145.479C145.748 48.2148 146.275 48.8359 147.061 49.3047C147.857 49.7734 148.795 50.0078 149.873 50.0078C151.338 50.0078 152.492 49.6211 153.336 48.8477C154.18 48.0859 154.602 47.0664 154.602 45.7891V42.748H154.531C154.004 43.7676 153.219 44.5762 152.176 45.1738C151.145 45.7715 149.979 46.0703 148.678 46.0703C146.346 46.0703 144.482 45.2266 143.088 43.5391C141.693 41.8398 140.996 39.5547 140.996 36.6836C140.996 33.7773 141.693 31.4746 143.088 29.7754C144.494 28.0645 146.387 27.209 148.766 27.209C150.066 27.209 151.232 27.5195 152.264 28.1406C153.295 28.75 154.092 29.5938 154.654 30.6719H154.725V27.5078H158.416V45.666C158.416 47.8691 157.625 49.6328 156.043 50.957C154.473 52.293 152.369 52.9609 149.732 52.9609ZM162.178 46V27.5078H165.799V30.6016H165.887C166.402 29.5234 167.152 28.6855 168.137 28.0879C169.121 27.4902 170.311 27.1914 171.705 27.1914C173.732 27.1914 175.309 27.8008 176.434 29.0195C177.559 30.2266 178.121 31.8965 178.121 34.0293V46H174.307V34.7676C174.307 33.3613 173.973 32.2949 173.305 31.5684C172.648 30.8301 171.67 30.4609 170.369 30.4609C169.033 30.4609 167.967 30.8945 167.17 31.7617C166.373 32.6289 165.975 33.7832 165.975 35.2246V46H162.178Z" fill="#121212"/>
</svg>
